<svg width="141" height="140" viewBox="0 0 141 140" fill="none" xmlns="http://www.w3.org/2000/svg">
<path d="M71.001 34.978H71C52.4516 34.978 37.415 50.0145 37.415 68.563V68.564C37.415 87.1125 52.4516 102.149 71 102.149H71.001C89.5495 102.149 104.586 87.1125 104.586 68.564V68.563C104.586 50.0145 89.5495 34.978 71.001 34.978Z" fill="#FF8046"/>
<path d="M56.256 68.851L65.951 78.546L85.744 58.751" stroke="white" stroke-width="5" stroke-linecap="round" stroke-linejoin="round"/>
<path d="M105.097 107.24C107.972 107.906 110.535 109.527 112.368 111.84C113.778 114.33 114.645 117.091 114.91 119.94" stroke="#BAE0DB" stroke-width="2" stroke-linecap="round" stroke-linejoin="round"/>
<path d="M31.979 84.343C29.862 86.78 24.321 91.154 19.087 89.153C12.545 86.653 12.737 82.803 14.854 81.264C16.971 79.725 19.854 82.226 20.434 84.343C21.014 86.46 20.049 93.579 14.854 96.273C9.659 98.967 2.732 97.62 1 96.273" stroke="#EFE0FF" stroke-width="2" stroke-linecap="round" stroke-linejoin="round"/>
<path d="M115.391 16.228C112.891 15.907 107.656 17.382 106.732 25.849C105.808 34.316 98.395 36.047 94.803 35.854" stroke="#FF8046" stroke-width="2" stroke-linecap="round" stroke-linejoin="round"/>
<path d="M21.108 55.727C23.6584 55.727 25.726 53.6594 25.726 51.109C25.726 48.5585 23.6584 46.491 21.108 46.491C18.5575 46.491 16.49 48.5585 16.49 51.109C16.49 53.6594 18.5575 55.727 21.108 55.727Z" fill="#F99A3D"/>
<path d="M49.032 18.729C51.1572 18.729 52.88 17.0062 52.88 14.881C52.88 12.7558 51.1572 11.033 49.032 11.033C46.9068 11.033 45.184 12.7558 45.184 14.881C45.184 17.0062 46.9068 18.729 49.032 18.729Z" fill="#FFE7EE"/>
<path d="M60.769 24.476C62.0371 24.476 63.065 23.448 63.065 22.18C63.065 20.912 62.0371 19.884 60.769 19.884C59.501 19.884 58.473 20.912 58.473 22.18C58.473 23.448 59.501 24.476 60.769 24.476Z" fill="#FFE7EE"/>
<path d="M122.126 69.896C124.411 69.896 126.263 68.0438 126.263 65.759C126.263 63.4742 124.411 61.622 122.126 61.622C119.841 61.622 117.989 63.4742 117.989 65.759C117.989 68.0438 119.841 69.896 122.126 69.896Z" fill="#EFE0FF"/>
<path d="M36.116 116.845C38.4008 116.845 40.253 114.993 40.253 112.708C40.253 110.423 38.4008 108.571 36.116 108.571C33.8312 108.571 31.979 110.423 31.979 112.708C31.979 114.993 33.8312 116.845 36.116 116.845Z" fill="#FFE7EE"/>
<path d="M87.683 128.967C89.9678 128.967 91.82 127.115 91.82 124.83C91.82 122.545 89.9678 120.693 87.683 120.693C85.3982 120.693 83.546 122.545 83.546 124.83C83.546 127.115 85.3982 128.967 87.683 128.967Z" fill="#F9D2DD"/>
<path d="M74.8871 122.989C76.1551 122.989 77.1831 121.961 77.1831 120.693C77.1831 119.425 76.1551 118.397 74.8871 118.397C73.619 118.397 72.5911 119.425 72.5911 120.693C72.5911 121.961 73.619 122.989 74.8871 122.989Z" fill="#FF8046"/>
</svg>
